<svg width="251" height="19" viewBox="0 0 251 19" fill="none" xmlns="http://www.w3.org/2000/svg">
<path d="M5.63672 15.293L9.03516 0.9375H10.9336L11.3672 3.32812L7.74609 18H5.70703L5.63672 15.293ZM3.89062 0.9375L6.70312 15.293L6.46875 18H4.19531L0.410156 0.9375H3.89062ZM14.3555 15.2344L17.1328 0.9375H20.6133L16.8398 18H14.5664L14.3555 15.2344ZM12 0.9375L15.4219 15.3516L15.3281 18H13.2891L9.64453 3.31641L10.1133 0.9375H12ZM33.9727 15.2578V18H24.8906V15.2578H33.9727ZM26.0391 0.9375V18H22.5234V0.9375H26.0391ZM32.7891 7.88672V10.5586H24.8906V7.88672H32.7891ZM33.9609 0.9375V3.69141H24.8906V0.9375H33.9609ZM46.9922 15.2578V18H38.4023V15.2578H46.9922ZM39.5391 0.9375V18H36.0234V0.9375H39.5391ZM58.125 12.3398H61.6289C61.5586 13.4883 61.2422 14.5078 60.6797 15.3984C60.125 16.2891 59.3477 16.9844 58.3477 17.4844C57.3555 17.9844 56.1602 18.2344 54.7617 18.2344C53.668 18.2344 52.6875 18.0469 51.8203 17.6719C50.9531 17.2891 50.2109 16.7422 49.5938 16.0312C48.9844 15.3203 48.5195 14.4609 48.1992 13.4531C47.8789 12.4453 47.7188 11.3164 47.7188 10.0664V8.88281C47.7188 7.63281 47.8828 6.50391 48.2109 5.49609C48.5469 4.48047 49.0234 3.61719 49.6406 2.90625C50.2656 2.19531 51.0117 1.64844 51.8789 1.26562C52.7461 0.882812 53.7148 0.691406 54.7852 0.691406C56.207 0.691406 57.4062 0.949219 58.3828 1.46484C59.3672 1.98047 60.1289 2.69141 60.668 3.59766C61.2148 4.50391 61.543 5.53516 61.6523 6.69141H58.1367C58.0977 6.00391 57.9609 5.42188 57.7266 4.94531C57.4922 4.46094 57.1367 4.09766 56.6602 3.85547C56.1914 3.60547 55.5664 3.48047 54.7852 3.48047C54.1992 3.48047 53.6875 3.58984 53.25 3.80859C52.8125 4.02734 52.4453 4.35938 52.1484 4.80469C51.8516 5.25 51.6289 5.8125 51.4805 6.49219C51.3398 7.16406 51.2695 7.95312 51.2695 8.85938V10.0664C51.2695 10.9492 51.3359 11.7266 51.4688 12.3984C51.6016 13.0625 51.8047 13.625 52.0781 14.0859C52.3594 14.5391 52.7188 14.8828 53.1562 15.1172C53.6016 15.3438 54.1367 15.457 54.7617 15.457C55.4961 15.457 56.1016 15.3398 56.5781 15.1055C57.0547 14.8711 57.418 14.5234 57.668 14.0625C57.9258 13.6016 58.0781 13.0273 58.125 12.3398ZM77.9531 9.07031V9.87891C77.9531 11.1758 77.7773 12.3398 77.4258 13.3711C77.0742 14.4023 76.5781 15.2812 75.9375 16.0078C75.2969 16.7266 74.5312 17.2773 73.6406 17.6602C72.7578 18.043 71.7773 18.2344 70.6992 18.2344C69.6289 18.2344 68.6484 18.043 67.7578 17.6602C66.875 17.2773 66.1094 16.7266 65.4609 16.0078C64.8125 15.2812 64.3086 14.4023 63.9492 13.3711C63.5977 12.3398 63.4219 11.1758 63.4219 9.87891V9.07031C63.4219 7.76562 63.5977 6.60156 63.9492 5.57812C64.3008 4.54688 64.7969 3.66797 65.4375 2.94141C66.0859 2.21484 66.8516 1.66016 67.7344 1.27734C68.625 0.894531 69.6055 0.703125 70.6758 0.703125C71.7539 0.703125 72.7344 0.894531 73.6172 1.27734C74.5078 1.66016 75.2734 2.21484 75.9141 2.94141C76.5625 3.66797 77.0625 4.54688 77.4141 5.57812C77.7734 6.60156 77.9531 7.76562 77.9531 9.07031ZM74.4023 9.87891V9.04688C74.4023 8.14062 74.3203 7.34375 74.1562 6.65625C73.9922 5.96875 73.75 5.39062 73.4297 4.92188C73.1094 4.45312 72.7188 4.10156 72.2578 3.86719C71.7969 3.625 71.2695 3.50391 70.6758 3.50391C70.082 3.50391 69.5547 3.625 69.0938 3.86719C68.6406 4.10156 68.2539 4.45312 67.9336 4.92188C67.6211 5.39062 67.3828 5.96875 67.2188 6.65625C67.0547 7.34375 66.9727 8.14062 66.9727 9.04688V9.87891C66.9727 10.7773 67.0547 11.5742 67.2188 12.2695C67.3828 12.957 67.625 13.5391 67.9453 14.0156C68.2656 14.4844 68.6562 14.8398 69.1172 15.082C69.5781 15.3242 70.1055 15.4453 70.6992 15.4453C71.293 15.4453 71.8203 15.3242 72.2812 15.082C72.7422 14.8398 73.1289 14.4844 73.4414 14.0156C73.7539 13.5391 73.9922 12.957 74.1562 12.2695C74.3203 11.5742 74.4023 10.7773 74.4023 9.87891ZM82.0898 0.9375H85.0664L89.4492 13.4648L93.832 0.9375H96.8086L90.6445 18H88.2539L82.0898 0.9375ZM80.4844 0.9375H83.4492L83.9883 13.1484V18H80.4844V0.9375ZM95.4492 0.9375H98.4258V18H94.9102V13.1484L95.4492 0.9375ZM112.957 15.2578V18H103.875V15.2578H112.957ZM105.023 0.9375V18H101.508V0.9375H105.023ZM111.773 7.88672V10.5586H103.875V7.88672H111.773ZM112.945 0.9375V3.69141H103.875V0.9375H112.945ZM127.98 0.9375V18H124.477V0.9375H127.98ZM133.23 0.9375V3.69141H119.309V0.9375H133.23ZM148.922 9.07031V9.87891C148.922 11.1758 148.746 12.3398 148.395 13.3711C148.043 14.4023 147.547 15.2812 146.906 16.0078C146.266 16.7266 145.5 17.2773 144.609 17.6602C143.727 18.043 142.746 18.2344 141.668 18.2344C140.598 18.2344 139.617 18.043 138.727 17.6602C137.844 17.2773 137.078 16.7266 136.43 16.0078C135.781 15.2812 135.277 14.4023 134.918 13.3711C134.566 12.3398 134.391 11.1758 134.391 9.87891V9.07031C134.391 7.76562 134.566 6.60156 134.918 5.57812C135.27 4.54688 135.766 3.66797 136.406 2.94141C137.055 2.21484 137.82 1.66016 138.703 1.27734C139.594 0.894531 140.574 0.703125 141.645 0.703125C142.723 0.703125 143.703 0.894531 144.586 1.27734C145.477 1.66016 146.242 2.21484 146.883 2.94141C147.531 3.66797 148.031 4.54688 148.383 5.57812C148.742 6.60156 148.922 7.76562 148.922 9.07031ZM145.371 9.87891V9.04688C145.371 8.14062 145.289 7.34375 145.125 6.65625C144.961 5.96875 144.719 5.39062 144.398 4.92188C144.078 4.45312 143.688 4.10156 143.227 3.86719C142.766 3.625 142.238 3.50391 141.645 3.50391C141.051 3.50391 140.523 3.625 140.062 3.86719C139.609 4.10156 139.223 4.45312 138.902 4.92188C138.59 5.39062 138.352 5.96875 138.188 6.65625C138.023 7.34375 137.941 8.14062 137.941 9.04688V9.87891C137.941 10.7773 138.023 11.5742 138.188 12.2695C138.352 12.957 138.594 13.5391 138.914 14.0156C139.234 14.4844 139.625 14.8398 140.086 15.082C140.547 15.3242 141.074 15.4453 141.668 15.4453C142.262 15.4453 142.789 15.3242 143.25 15.082C143.711 14.8398 144.098 14.4844 144.41 14.0156C144.723 13.5391 144.961 12.957 145.125 12.2695C145.289 11.5742 145.371 10.7773 145.371 9.87891ZM210.141 15.1406V9.49219C210.141 9.08594 210.074 8.73828 209.941 8.44922C209.809 8.15234 209.602 7.92188 209.32 7.75781C209.047 7.59375 208.691 7.51172 208.254 7.51172C207.879 7.51172 207.555 7.57812 207.281 7.71094C207.008 7.83594 206.797 8.01953 206.648 8.26172C206.5 8.49609 206.426 8.77344 206.426 9.09375H203.051C203.051 8.55469 203.176 8.04297 203.426 7.55859C203.676 7.07422 204.039 6.64844 204.516 6.28125C204.992 5.90625 205.559 5.61328 206.215 5.40234C206.879 5.19141 207.621 5.08594 208.441 5.08594C209.426 5.08594 210.301 5.25 211.066 5.57812C211.832 5.90625 212.434 6.39844 212.871 7.05469C213.316 7.71094 213.539 8.53125 213.539 9.51562V14.9414C213.539 15.6367 213.582 16.207 213.668 16.6523C213.754 17.0898 213.879 17.4727 214.043 17.8008V18H210.633C210.469 17.6562 210.344 17.2266 210.258 16.7109C210.18 16.1875 210.141 15.6641 210.141 15.1406ZM210.586 10.2773L210.609 12.1875H208.723C208.277 12.1875 207.891 12.2383 207.562 12.3398C207.234 12.4414 206.965 12.5859 206.754 12.7734C206.543 12.9531 206.387 13.1641 206.285 13.4062C206.191 13.6484 206.145 13.9141 206.145 14.2031C206.145 14.4922 206.211 14.7539 206.344 14.9883C206.477 15.2148 206.668 15.3945 206.918 15.5273C207.168 15.6523 207.461 15.7148 207.797 15.7148C208.305 15.7148 208.746 15.6133 209.121 15.4102C209.496 15.207 209.785 14.957 209.988 14.6602C210.199 14.3633 210.309 14.082 210.316 13.8164L211.207 15.2461C211.082 15.5664 210.91 15.8984 210.691 16.2422C210.48 16.5859 210.211 16.9102 209.883 17.2148C209.555 17.5117 209.16 17.7578 208.699 17.9531C208.238 18.1406 207.691 18.2344 207.059 18.2344C206.254 18.2344 205.523 18.0742 204.867 17.7539C204.219 17.4258 203.703 16.9766 203.32 16.4062C202.945 15.8281 202.758 15.1719 202.758 14.4375C202.758 13.7734 202.883 13.1836 203.133 12.668C203.383 12.1523 203.75 11.7188 204.234 11.3672C204.727 11.0078 205.34 10.7383 206.074 10.5586C206.809 10.3711 207.66 10.2773 208.629 10.2773H210.586ZM220.266 15.5391L223.078 5.32031H226.605L222.328 18H220.195L220.266 15.5391ZM218.332 5.32031L221.156 15.5508L221.215 18H219.07L214.793 5.32031H218.332ZM233.789 18.2344C232.805 18.2344 231.922 18.0781 231.141 17.7656C230.359 17.4453 229.695 17.0039 229.148 16.4414C228.609 15.8789 228.195 15.2266 227.906 14.4844C227.617 13.7344 227.473 12.9375 227.473 12.0938V11.625C227.473 10.6641 227.609 9.78516 227.883 8.98828C228.156 8.19141 228.547 7.5 229.055 6.91406C229.57 6.32812 230.195 5.87891 230.93 5.56641C231.664 5.24609 232.492 5.08594 233.414 5.08594C234.312 5.08594 235.109 5.23438 235.805 5.53125C236.5 5.82812 237.082 6.25 237.551 6.79688C238.027 7.34375 238.387 8 238.629 8.76562C238.871 9.52344 238.992 10.3672 238.992 11.2969V12.7031H228.914V10.4531H235.676V10.1953C235.676 9.72656 235.59 9.30859 235.418 8.94141C235.254 8.56641 235.004 8.26953 234.668 8.05078C234.332 7.83203 233.902 7.72266 233.379 7.72266C232.934 7.72266 232.551 7.82031 232.23 8.01562C231.91 8.21094 231.648 8.48438 231.445 8.83594C231.25 9.1875 231.102 9.60156 231 10.0781C230.906 10.5469 230.859 11.0625 230.859 11.625V12.0938C230.859 12.6016 230.93 13.0703 231.07 13.5C231.219 13.9297 231.426 14.3008 231.691 14.6133C231.965 14.9258 232.293 15.168 232.676 15.3398C233.066 15.5117 233.508 15.5977 234 15.5977C234.609 15.5977 235.176 15.4805 235.699 15.2461C236.23 15.0039 236.688 14.6406 237.07 14.1562L238.711 15.9375C238.445 16.3203 238.082 16.6875 237.621 17.0391C237.168 17.3906 236.621 17.6797 235.98 17.9062C235.34 18.125 234.609 18.2344 233.789 18.2344ZM250.699 0.9375L250.312 12.7852H247.5L247.102 0.9375H250.699ZM247.008 16.4531C247.008 15.9531 247.18 15.5391 247.523 15.2109C247.875 14.875 248.336 14.707 248.906 14.707C249.484 14.707 249.945 14.875 250.289 15.2109C250.633 15.5391 250.805 15.9531 250.805 16.4531C250.805 16.9375 250.633 17.3477 250.289 17.6836C249.945 18.0195 249.484 18.1875 248.906 18.1875C248.336 18.1875 247.875 18.0195 247.523 17.6836C247.18 17.3477 247.008 16.9375 247.008 16.4531Z" fill="white"/>
<path d="M166.852 0.9375H170.355V12.2109C170.355 13.5234 170.074 14.6289 169.512 15.5273C168.957 16.4258 168.188 17.1016 167.203 17.5547C166.227 18.0078 165.102 18.2344 163.828 18.2344C162.555 18.2344 161.422 18.0078 160.43 17.5547C159.445 17.1016 158.672 16.4258 158.109 15.5273C157.555 14.6289 157.277 13.5234 157.277 12.2109V0.9375H160.793V12.2109C160.793 12.9766 160.914 13.6016 161.156 14.0859C161.398 14.5703 161.746 14.9258 162.199 15.1523C162.66 15.3789 163.203 15.4922 163.828 15.4922C164.469 15.4922 165.012 15.3789 165.457 15.1523C165.91 14.9258 166.254 14.5703 166.488 14.0859C166.73 13.6016 166.852 12.9766 166.852 12.2109V0.9375ZM179.895 11.918H175.547V9.17578H179.895C180.566 9.17578 181.113 9.06641 181.535 8.84766C181.957 8.62109 182.266 8.30859 182.461 7.91016C182.656 7.51172 182.754 7.0625 182.754 6.5625C182.754 6.05469 182.656 5.58203 182.461 5.14453C182.266 4.70703 181.957 4.35547 181.535 4.08984C181.113 3.82422 180.566 3.69141 179.895 3.69141H176.766V18H173.25V0.9375H179.895C181.23 0.9375 182.375 1.17969 183.328 1.66406C184.289 2.14063 185.023 2.80078 185.531 3.64453C186.039 4.48828 186.293 5.45312 186.293 6.53906C186.293 7.64062 186.039 8.59375 185.531 9.39844C185.023 10.2031 184.289 10.8242 183.328 11.2617C182.375 11.6992 181.23 11.918 179.895 11.918ZM197.602 13.5352C197.602 13.2305 197.555 12.957 197.461 12.7148C197.375 12.4648 197.211 12.2383 196.969 12.0352C196.727 11.8242 196.387 11.6172 195.949 11.4141C195.512 11.2109 194.945 11 194.25 10.7812C193.477 10.5312 192.742 10.25 192.047 9.9375C191.359 9.625 190.75 9.26172 190.219 8.84766C189.695 8.42578 189.281 7.9375 188.977 7.38281C188.68 6.82812 188.531 6.18359 188.531 5.44922C188.531 4.73828 188.688 4.09375 189 3.51562C189.312 2.92969 189.75 2.42969 190.312 2.01562C190.875 1.59375 191.539 1.26953 192.305 1.04297C193.078 0.816406 193.926 0.703125 194.848 0.703125C196.105 0.703125 197.203 0.929687 198.141 1.38281C199.078 1.83594 199.805 2.45703 200.32 3.24609C200.844 4.03516 201.105 4.9375 201.105 5.95312H197.613C197.613 5.45312 197.508 5.01562 197.297 4.64062C197.094 4.25781 196.781 3.95703 196.359 3.73828C195.945 3.51953 195.422 3.41016 194.789 3.41016C194.18 3.41016 193.672 3.50391 193.266 3.69141C192.859 3.87109 192.555 4.11719 192.352 4.42969C192.148 4.73438 192.047 5.07812 192.047 5.46094C192.047 5.75 192.117 6.01172 192.258 6.24609C192.406 6.48047 192.625 6.69922 192.914 6.90234C193.203 7.10547 193.559 7.29688 193.98 7.47656C194.402 7.65625 194.891 7.83203 195.445 8.00391C196.375 8.28516 197.191 8.60156 197.895 8.95312C198.605 9.30469 199.199 9.69922 199.676 10.1367C200.152 10.5742 200.512 11.0703 200.754 11.625C200.996 12.1797 201.117 12.8086 201.117 13.5117C201.117 14.2539 200.973 14.918 200.684 15.5039C200.395 16.0898 199.977 16.5859 199.43 16.9922C198.883 17.3984 198.23 17.707 197.473 17.918C196.715 18.1289 195.867 18.2344 194.93 18.2344C194.086 18.2344 193.254 18.125 192.434 17.9062C191.613 17.6797 190.867 17.3398 190.195 16.8867C189.531 16.4336 189 15.8555 188.602 15.1523C188.203 14.4492 188.004 13.6172 188.004 12.6562H191.531C191.531 13.1875 191.613 13.6367 191.777 14.0039C191.941 14.3711 192.172 14.668 192.469 14.8945C192.773 15.1211 193.133 15.2852 193.547 15.3867C193.969 15.4883 194.43 15.5391 194.93 15.5391C195.539 15.5391 196.039 15.4531 196.43 15.2812C196.828 15.1094 197.121 14.8711 197.309 14.5664C197.504 14.2617 197.602 13.918 197.602 13.5352Z" fill="#FFC100"/>
</svg>
